<svg width="27" height="20" viewBox="0 0 27 20" fill="none" xmlns="http://www.w3.org/2000/svg">
<path fill-rule="evenodd" clip-rule="evenodd" d="M0.000976562 0V20H27.0003V0H0.000976562Z" fill="#2E42A5"/>
<mask id="mask0_3768_5233" style="mask-type:luminance" maskUnits="userSpaceOnUse" x="0" y="0" width="27" height="20">
<path fill-rule="evenodd" clip-rule="evenodd" d="M0 0V20H26.9993V0H0Z" fill="white"/>
</mask>
<g mask="url(#mask0_3768_5233)">
<path d="M-3.00586 18.5716L2.93568 21.0541L27.1338 2.69914L30.2683 -0.989193L23.915 -1.81836L14.0451 6.09081L6.10051 11.4208L-3.00586 18.5716Z" fill="white"/>
<path d="M-2.19434 20.3105L0.833809 21.7505L29.1418 -1.33203H24.8919L-2.19434 20.3105Z" fill="#F50100"/>
<path d="M30.0066 18.5716L24.065 21.0541L-0.133123 2.69914L-3.26758 -0.989193L3.0857 -1.81836L12.9557 6.09081L20.9002 11.4208L30.0066 18.5716Z" fill="white"/>
<path d="M29.8034 19.8201L26.7761 21.2601L14.7226 11.3768L11.1485 10.2734L-3.57031 -0.976562H0.680397L15.39 10.0068L19.2973 11.3301L29.8034 19.8201Z" fill="#F50100"/>
<path fill-rule="evenodd" clip-rule="evenodd" d="M16.6871 -1.66602H10.3118V6.66732H-1.66406V13.334H10.3118V21.6673H16.6871V13.334H28.7102V6.66732H16.6871V-1.66602Z" fill="#F50100"/>
<mask id="mask1_3768_5233" style="mask-type:luminance" maskUnits="userSpaceOnUse" x="-2" y="-2" width="31" height="24">
<path fill-rule="evenodd" clip-rule="evenodd" d="M16.688 -1.66602H10.3128V6.66732H-1.66309V13.334H10.3128V21.6673H16.688V13.334H28.7112V6.66732H16.688V-1.66602Z" fill="white"/>
</mask>
<g mask="url(#mask1_3768_5233)">
<path d="M10.3128 -1.66536V-3.33203H8.62531V-1.66536H10.3128ZM16.688 -1.66536H18.3754V-3.33203H16.688V-1.66536ZM10.3128 6.66797V8.33463H12.0002V6.66797H10.3128ZM-1.66313 6.66797V5.0013H-3.35059V6.66797H-1.66313ZM-1.66313 13.3346H-3.35059V15.0013H-1.66313V13.3346ZM10.3128 13.3346H12.0002V11.668H10.3128V13.3346ZM10.3128 21.668H8.62531V23.3346H10.3128V21.668ZM16.688 21.668V23.3346H18.3754V21.668H16.688ZM16.688 13.3346V11.668H15.0005V13.3346H16.688ZM28.7111 13.3346V15.0013H30.3986V13.3346H28.7111ZM28.7111 6.66797H30.3986V5.0013H28.7111V6.66797ZM16.688 6.66797H15.0005V8.33463H16.688V6.66797ZM10.3128 0.001302H16.688V-3.33203H10.3128V0.001302ZM12.0002 6.66797V-1.66536H8.62531V6.66797H12.0002ZM-1.66313 8.33463H10.3128V5.0013H-1.66313V8.33463ZM0.0243316 13.3346V6.66797H-3.35059V13.3346H0.0243316ZM10.3128 11.668H-1.66313V15.0013H10.3128V11.668ZM12.0002 21.668V13.3346H8.62531V21.668H12.0002ZM16.688 20.0013H10.3128V23.3346H16.688V20.0013ZM15.0005 13.3346V21.668H18.3754V13.3346H15.0005ZM28.7111 11.668H16.688V15.0013H28.7111V11.668ZM27.0237 6.66797V13.3346H30.3986V6.66797H27.0237ZM16.688 8.33463H28.7111V5.0013H16.688V8.33463ZM15.0005 -1.66536V6.66797H18.3754V-1.66536H15.0005Z" fill="white"/>
</g>
</g>
</svg>
